<?xml version="1.0" standalone="no"?><!DOCTYPE svg PUBLIC "-//W3C//DTD SVG 1.1//EN" "http://www.w3.org/Graphics/SVG/1.1/DTD/svg11.dtd"><svg t="1773219350283" class="icon" viewBox="0 0 1024 1024" version="1.1" xmlns="http://www.w3.org/2000/svg" p-id="12508" xmlns:xlink="http://www.w3.org/1999/xlink" width="200" height="200"><path d="M846.112 960H265.888a93.824 93.824 0 0 1-93.888-93.568V157.568A93.824 93.824 0 0 1 265.888 64h580.224a93.856 93.856 0 0 1 93.888 93.568v708.864A93.824 93.824 0 0 1 846.112 960zM265.888 128a29.76 29.76 0 0 0-29.888 29.568v708.864c0 16.32 13.408 29.568 29.888 29.568h580.224a29.76 29.76 0 0 0 29.888-29.568V157.568A29.76 29.76 0 0 0 846.112 128H265.888z" fill="#1373F5" p-id="12509"></path><path d="M288 235.04c0 23.04-14.4 41.696-32.128 41.696H128.128C110.4 276.768 96 258.08 96 235.04s14.4-41.696 32.128-41.696h127.744C273.6 193.344 288 212 288 235.04zM288 416.128c0 23.04-14.4 41.696-32.128 41.696H128.128C110.4 457.824 96 439.168 96 416.128s14.4-41.696 32.128-41.696h127.744C273.6 374.4 288 393.088 288 416.128zM288 597.216c0 23.04-14.4 41.696-32.128 41.696H128.128C110.4 638.912 96 620.256 96 597.216s14.4-41.696 32.128-41.696h127.744C273.6 555.488 288 574.176 288 597.216zM288 778.304c0 23.04-14.4 41.696-32.128 41.696H128.128C110.4 820 96 801.312 96 778.304c0-23.04 14.4-41.696 32.128-41.696h127.744C273.6 736.576 288 755.264 288 778.304z" fill="#1373F5" p-id="12510"></path><path d="M767.328 692.992a16 16 0 0 1-14.784-9.888l-44.832-108.256-40.352 46.016a15.84 15.84 0 0 1-16.096 4.896 15.936 15.936 0 0 1-11.584-12.16l-56.384-266.304-84.64 282.272a16.032 16.032 0 0 1-28.896 3.904l-56.448-90.336-37.44 116.064a16 16 0 0 1-30.464-9.824l48-148.832a16.064 16.064 0 0 1 28.8-3.584l55.936 89.536 92.512-308.416a15.584 15.584 0 0 1 15.968-11.392 16 16 0 0 1 15.008 12.672l62.72 296.352 36.256-41.312a16 16 0 0 1 26.816 4.416l54.688 132a16 16 0 0 1-14.784 22.176z" fill="#1373F5" p-id="12511"></path></svg>