<?xml version="1.0" standalone="no"?><!DOCTYPE svg PUBLIC "-//W3C//DTD SVG 1.1//EN" "http://www.w3.org/Graphics/SVG/1.1/DTD/svg11.dtd"><svg t="1773219264245" class="icon" viewBox="0 0 1024 1024" version="1.1" xmlns="http://www.w3.org/2000/svg" p-id="9426" xmlns:xlink="http://www.w3.org/1999/xlink" width="200" height="200"><path d="M360 201.2c0 80.4-65.1 145.6-145.5 145.6S68.9 281.7 68.9 201.3 134 55.7 214.4 55.7 360 120.8 360 201.2z m196.5-72.7c0 40.2-32.6 72.8-72.8 72.8s-72.8-32.6-72.8-72.8 32.6-72.8 72.8-72.8c40.2 0 72.8 32.6 72.8 72.8z m211.1 18.1c0 40.2-32.6 72.8-72.8 72.8-40.2 0-72.8-32.6-72.8-72.8 0-40.2 32.6-72.8 72.8-72.8 40.3 0 72.8 32.6 72.8 72.8z m171.1 94.7c0 40.2-32.6 72.8-72.8 72.8s-72.8-32.6-72.8-72.8c0-40.2 32.6-72.8 72.7-72.8 40.3 0 72.9 32.6 72.9 72.8zM295.4 428.7c41.3-87.4 127.3-145.1 223.9-150.1 0 0 273.9-19.1 321.1 251 23 132 13.4 417.8-198.3 461.3-51.1 10.5-199.3-2.6-180.1-136.3 6.8-47.3 51.1-124.2 0-191.1-35.6-46.4-213-59.8-166.6-234.8" fill="#637BFF" p-id="9427"></path></svg>